<svg width="495" height="499" viewBox="0 0 495 499" fill="none" xmlns="http://www.w3.org/2000/svg">
<path d="M130.625 428.23L138.704 432.27C172.372 452.469 210.076 461.896 247.783 461.896C366.287 461.896 463.244 364.938 463.244 246.434C463.244 189.876 440.351 134.664 399.953 94.2644C359.553 53.8648 305.687 30.9729 247.783 30.9729C129.279 30.9729 32.3197 127.93 33.6672 247.782C33.6672 288.179 45.7869 327.234 65.9857 360.898L71.3718 368.979L49.8274 448.43L130.625 428.23Z" fill="#00E676"/>
<path d="M422.845 72.7181C377.059 25.5869 313.767 0 249.128 0C111.773 0 1.34847 111.77 2.69403 247.78C2.69403 290.873 14.8137 332.62 35.0145 370.324L0.000976562 498.255L130.625 464.589C166.984 484.79 207.381 494.216 247.783 494.216C383.792 494.216 494.217 382.444 494.217 246.436C494.217 180.45 468.63 118.504 422.847 72.7181H422.845ZM249.128 452.471C212.769 452.471 176.41 443.046 145.437 424.193L137.358 420.153L59.2539 440.351L79.4527 363.595L74.0666 355.514C14.8137 259.903 43.0936 133.317 140.051 74.0637C237.009 14.8127 362.246 43.0927 421.499 140.05C480.75 237.008 452.47 362.245 355.515 421.498C324.54 441.697 286.835 452.469 249.128 452.469V452.471ZM367.632 302.996L352.82 296.263C352.82 296.263 331.275 286.836 317.808 280.102C316.46 280.102 315.115 278.755 313.767 278.755C309.727 278.755 307.034 280.102 304.341 281.45C304.341 281.45 302.995 282.795 284.142 304.342C282.794 307.035 280.101 308.382 277.408 308.382H276.061C274.715 308.382 272.022 307.035 270.675 305.689L263.941 302.996C249.128 296.263 235.663 288.181 224.889 277.409C222.196 274.716 218.155 272.023 215.462 269.33C206.036 259.903 196.609 249.129 189.877 237.01L188.53 234.317C187.184 232.969 187.184 231.624 185.837 228.93C185.837 226.237 185.837 223.544 187.184 222.197C187.184 222.197 192.57 215.463 196.609 211.425C199.304 208.73 200.65 204.691 203.343 201.998C206.036 197.958 207.383 192.571 206.036 188.531C204.69 181.797 188.53 145.438 184.491 137.359C181.796 133.319 179.105 131.973 175.065 130.625H160.252C157.557 130.625 154.866 131.973 152.171 131.973L150.823 133.319C148.13 134.666 145.437 137.359 142.744 138.705C140.051 141.4 138.704 144.091 136.011 146.786C126.584 158.905 121.198 173.718 121.198 188.531C121.198 199.303 123.891 210.077 127.931 219.504L129.279 223.544C141.399 249.129 157.557 272.023 179.105 292.222L184.491 297.608C188.53 301.649 192.57 304.342 195.264 308.38C223.543 332.622 255.862 350.127 292.221 359.554C296.262 360.9 301.648 360.9 305.688 362.247H319.153C325.887 362.247 333.966 359.554 339.354 356.861C343.393 354.168 346.086 354.168 348.779 351.475L351.474 348.78C354.167 346.087 356.86 344.741 359.553 342.048C362.246 339.355 364.939 336.662 366.287 333.967C368.98 328.581 370.325 321.847 371.673 315.116V305.689C371.673 305.689 370.325 304.342 367.632 302.996V302.996Z" fill="white"/>
</svg>
