<svg width="134" height="126" viewBox="0 0 134 126" fill="none" xmlns="http://www.w3.org/2000/svg">
<path fill-rule="evenodd" clip-rule="evenodd" d="M97.8143 68.1978L95.6857 31.5181L84.354 65.7238L89.6451 85.9738C92.0608 79.9556 94.7662 73.992 97.8143 68.1978ZM23.4941 112.474C52.8331 112.474 82.1695 112.474 111.503 112.474C113.632 83.3306 118.753 58.6899 126 37.3696C109.723 53.854 97.6416 76.2446 88.7841 103.19L67.5 20.8853L46.2159 103.19C37.3584 76.2446 25.2773 53.854 9 37.3696C16.3055 58.6899 21.3654 83.3306 23.4941 112.474ZM18.2615 118.997H116.797V125.299H18.2615V118.997ZM37.2441 68.3097L39.3728 31.5181L50.646 65.5545L45.3522 85.9738C42.9392 79.9556 40.2365 74.0467 37.2441 68.3097Z" fill="#992B09"/>
<path d="M8.92969 28.2474C8.71875 28.9531 8.46797 29.4896 8.17969 29.8568C7.97578 30.1146 7.77188 30.3047 7.56328 30.4245C7.28906 30.5937 6.9961 30.6771 6.68438 30.6771C6.26953 30.6771 5.92031 30.4974 5.63672 30.1354C5.35547 29.7734 5.21484 29.2109 5.21484 28.4453C5.21484 27.875 5.31563 27.2187 5.51953 26.4766C5.72109 25.737 6.0211 25.1667 6.42188 24.7656C6.82031 24.3646 7.25625 24.1641 7.72735 24.1641C8.16563 24.1641 8.52891 24.3464 8.81485 24.7109C9.10313 25.0755 9.2461 25.5964 9.2461 26.2786C9.2461 26.8854 9.14063 27.5443 8.92969 28.2474ZM14.8664 31.3047C14.5805 31.3047 14.3859 31.5 14.2453 31.75L14.243 31.7474C13.6688 32.5495 13.0336 33.4635 11.8172 33.9635C10.8703 34.349 9.75 34.5625 8.44219 34.5625C7.08281 34.5625 5.87813 34.3229 4.82344 33.8437C3.77109 33.3672 2.95313 32.6068 2.36953 31.5625C1.78594 30.5208 1.49531 29.3646 1.49531 28.0937C1.49531 26.7865 1.75547 25.5312 2.27813 24.3229C2.80078 23.1146 3.57891 22.1771 4.61016 21.513C5.64375 20.8464 6.9 20.513 8.3836 20.513C10.1297 20.513 11.4914 21.013 12.4664 22.0078C13.4391 23.0052 13.9266 24.2448 13.9266 25.7266C13.9266 26.5521 13.7555 27.349 13.4109 28.1224C13.0664 28.8932 12.6141 29.5078 12.0563 29.9635C11.6391 30.3125 11.2992 30.4896 11.0367 30.4896C10.95 30.4896 10.875 30.4505 10.8117 30.375C10.7484 30.2995 10.7156 30.1875 10.7156 30.0365C10.7156 29.9167 10.7555 29.651 10.8305 29.2422L11.8359 23.9141C11.843 23.8802 11.85 23.8464 11.8547 23.8125L11.8594 23.7943H11.857C11.8641 23.7396 11.8711 23.6823 11.8711 23.625C11.8711 22.9818 11.3953 22.4583 10.8094 22.4583C10.2867 22.4583 9.85313 22.875 9.76406 23.4219L9.69844 23.7656C9.23203 22.9479 8.5125 22.5391 7.53985 22.5391C6.16875 22.5391 5.04844 23.25 4.17188 24.6693C3.45 25.8385 3.08672 27.1302 3.08672 28.5469C3.08672 29.6901 3.38672 30.6068 3.98672 31.2969C4.58672 31.987 5.34141 32.3307 6.24844 32.3307C7.09219 32.3307 7.8375 31.987 8.48203 31.3021C8.55938 31.638 8.71406 31.8958 8.94375 32.0703C9.17344 32.2448 9.51563 32.3307 9.97031 32.3307C11.6555 32.3307 13.0383 31.5495 14.1164 29.9818C14.9766 28.7422 15.4055 27.3542 15.4055 25.8177C15.4055 24.5286 15.1219 23.3411 14.557 22.2526C13.9898 21.1667 13.1695 20.3281 12.0961 19.737C11.0227 19.1458 9.79688 18.8516 8.41641 18.8516C6.79219 18.8516 5.3461 19.2188 4.08047 19.9505C2.81719 20.6823 1.82109 21.7786 1.09219 23.237C0.363281 24.6979 0 26.276 0 27.9687C0 29.5104 0.31875 30.9349 0.960938 32.2448C1.60078 33.5547 2.57813 34.5469 3.89297 35.2187C5.20547 35.8906 6.76641 36.2266 8.57344 36.2266C9.90938 36.2266 10.9828 36.0156 11.843 35.6745C11.843 35.6745 14.1258 34.901 15.4031 32.7344C15.4031 32.7344 15.6633 32.3646 15.6633 32.1042C15.6633 31.6198 15.307 31.3047 14.8664 31.3047Z" fill="#992B09"/>
<path d="M41.1753 22.1537L42.4621 21.6667C42.7527 21.5599 42.9449 21.3412 43.0363 21.0131C43.3574 19.7865 42.4269 18.9506 41.5925 19.2657L40.505 19.6797C40.4113 19.7162 40.3199 19.7084 40.2308 19.6589C40.1441 19.6068 40.0831 19.5287 40.0527 19.4219L39.3285 16.9896C39.2956 16.8828 39.3027 16.7787 39.3472 16.6797C39.3917 16.5782 39.4621 16.5104 39.5558 16.4766L40.641 16.0651C41.4707 15.75 41.7707 14.461 40.88 13.7005C40.6222 13.4896 40.3456 13.4453 40.048 13.5651L38.773 14.0443C38.6956 14.0755 38.6183 14.0677 38.5433 14.0261C38.4706 13.9844 38.4191 13.9193 38.3933 13.8308L37.9949 12.4818C37.716 11.5417 36.5769 11.2032 35.9042 12.2136C35.7191 12.5026 35.6792 12.8177 35.7847 13.1537L36.2089 14.5808C36.2417 14.6875 36.2347 14.7917 36.1902 14.8907C36.1456 14.9922 36.0753 15.0599 35.9816 15.0938L33.7128 15.9506C33.6191 15.987 33.5277 15.9792 33.4386 15.9297C33.3495 15.8776 33.291 15.7995 33.2581 15.6927L32.8785 14.4063C32.5995 13.4688 31.4605 13.1276 30.7878 14.138C30.6027 14.4297 30.5628 14.7422 30.6683 15.0808L31.1136 16.5782C31.1417 16.6693 31.1394 16.7552 31.1019 16.8438C31.0644 16.9297 31.0058 16.987 30.9261 17.0183L29.6464 17.5026C29.3581 17.625 29.1636 17.8516 29.0581 18.1771C28.805 19.2006 29.4191 19.9479 30.1152 19.9688C30.2464 19.9714 30.3777 19.9506 30.5019 19.9011L31.5894 19.4896C31.6831 19.4532 31.7745 19.461 31.8636 19.5104C31.9527 19.5599 32.0113 19.6381 32.0441 19.7448L32.773 22.1823C32.8035 22.2891 32.7964 22.3907 32.7519 22.4922C32.7097 22.5938 32.6394 22.6615 32.5456 22.6953L31.3199 23.1615C31.0339 23.2839 30.837 23.5078 30.7316 23.8334C30.4808 24.8594 31.0925 25.6068 31.7886 25.625C31.9222 25.6302 32.0535 25.6094 32.1824 25.5599L33.3238 25.1276C33.4035 25.0964 33.4785 25.1016 33.5535 25.1433C33.6285 25.1849 33.6777 25.2526 33.7058 25.3412L34.1042 26.6901C34.1792 26.948 34.3152 27.1589 34.5074 27.3204C34.7019 27.4844 34.9199 27.5677 35.1613 27.5756C35.3652 27.5756 35.5574 27.5209 35.7402 27.4167C35.923 27.3099 36.073 27.1615 36.1925 26.9714C36.3824 26.6823 36.4246 26.3646 36.3167 26.0235L35.8925 24.5964C35.8597 24.4896 35.8667 24.3855 35.9113 24.2865C35.9558 24.1849 36.0238 24.1172 36.1175 24.0834L38.3886 23.2266C38.4824 23.1901 38.5738 23.198 38.6628 23.2474C38.7496 23.2969 38.8105 23.3776 38.841 23.4818L39.223 24.7709C39.298 25.0287 39.4339 25.237 39.6261 25.3985C39.8206 25.5599 40.0363 25.6459 40.2753 25.6511C40.4863 25.6485 40.6832 25.5912 40.866 25.4766C41.0488 25.362 41.1964 25.2058 41.3113 25.0079C41.4917 24.7214 41.5316 24.4115 41.4285 24.0782L40.9855 22.5808C40.9597 22.4922 40.9644 22.4063 41.0019 22.323C41.0394 22.2396 41.0957 22.1823 41.1753 22.1537ZM37.5636 20.8021L35.4988 21.5834C35.3745 21.6302 35.255 21.6198 35.1402 21.5547C35.023 21.4896 34.9433 21.3881 34.9035 21.25L34.2519 19.0443C34.212 18.9063 34.2191 18.7735 34.273 18.6433C34.3292 18.5131 34.416 18.4219 34.5378 18.3724L36.6027 17.5886C36.7246 17.5417 36.8441 17.5495 36.9613 17.6146C37.0785 17.6797 37.1558 17.7839 37.198 17.9219L37.8472 20.1224C37.8917 20.2605 37.8871 20.3959 37.8308 20.5287C37.7746 20.6615 37.6855 20.7526 37.5636 20.8021Z" fill="#992B09"/>
<path d="M93.2127 21.5L95.8986 24.4818C96.1634 24.7761 96.5877 24.7995 96.8759 24.5339L104.057 17.9532L98.1345 25.9323C97.8955 26.2526 97.9166 26.724 98.1814 27.0183L100.865 30C101.242 30.4193 101.882 30.2605 102.065 29.7058L106.436 16.3464C106.647 15.7006 106.085 15.073 105.503 15.3099L93.4799 20.1667C92.9783 20.3698 92.8377 21.0808 93.2127 21.5Z" fill="#992B09"/>
<path d="M70.6852 0.78125C68.5523 0.78125 67.3688 2.44531 67.3688 2.44531C67.3688 2.44531 66.1852 0.78125 64.0523 0.78125C61.8141 0.78125 60 2.74219 60 5.16146C60 8.89062 65.3461 13.487 66.9305 14.7682C67.193 14.9792 67.5445 14.9792 67.807 14.7682C69.3914 13.487 74.7399 8.89062 74.7399 5.16146C74.7399 2.74219 72.9234 0.78125 70.6852 0.78125Z" fill="#992B09"/>
<path fill-rule="evenodd" clip-rule="evenodd" d="M119 31.797C119 32.5132 119.518 33.0835 120.153 33.0835H132.8C133.438 33.0835 133.953 32.508 133.953 31.797V24.0601C133.953 23.3491 133.438 22.7762 132.802 22.7762H129.795L128.729 20.9871C128.675 20.896 128.584 20.8413 128.49 20.8413H124.463C124.367 20.8413 124.278 20.896 124.224 20.9871L123.158 22.7762H120.148C119.516 22.7762 119 23.3491 119 24.0601V31.797ZM129.638 27.6069C129.638 25.6512 128.223 24.0627 126.477 24.0627C124.73 24.0627 123.313 25.6512 123.313 27.6069C123.313 29.5627 124.73 31.1512 126.477 31.1512C128.223 31.1512 129.638 29.5627 129.638 27.6069ZM123.887 27.6069C123.887 26.0054 125.047 24.7085 126.477 24.7085C127.904 24.7085 129.064 26.0054 129.064 27.6069C129.064 29.2085 127.904 30.5054 126.477 30.5054C125.047 30.5054 123.887 29.2085 123.887 27.6069ZM131.077 25.995C131.394 25.995 131.652 25.7085 131.652 25.3517C131.652 24.9976 131.394 24.7085 131.077 24.7085C130.759 24.7085 130.501 24.9976 130.501 25.3517C130.501 25.7085 130.759 25.995 131.077 25.995Z" fill="#992B09"/>
</svg>
